<svg width="116" height="34" viewBox="0 0 116 34" fill="none" xmlns="http://www.w3.org/2000/svg">
<path d="M33.6959 0C32.1018 0 30.7637 1.37302 30.7637 2.96711C30.7637 4.5612 32.1018 5.89931 33.6959 5.89931C35.29 5.89931 36.663 4.5612 36.663 2.96711C36.663 1.37302 35.3249 0 33.6959 0V0Z" fill="black"/>
<path d="M19.5247 19.56L16.1446 8.12793H11.6183L8.23809 19.5251L5.08481 8.12793H0L5.89931 26.6869H10.4663L13.8814 15.441L17.2965 26.6869H21.8635L27.7628 8.12793H22.678L19.5247 19.56Z" fill="black"/>
<path d="M112.815 20.7876C111.221 20.7876 109.883 22.1606 109.883 23.7547C109.883 25.3488 111.221 26.6869 112.815 26.6869C114.409 26.6869 115.782 25.3488 115.782 23.7547C115.782 22.1606 114.444 20.7876 112.815 20.7876Z" fill="black"/>
<path d="M36.1123 8.12793H31.3242V26.6869H36.1123V8.12793Z" fill="black"/>
<path d="M87.2568 0.814697H82.4688V26.6867H87.2568V0.814697Z" fill="black"/>
<path d="M105.426 8.12793L100.452 20.3862L95.4601 8.12793H90.416L97.9385 26.5938L94.9365 34H99.9282L110.47 8.12793H105.426Z" fill="black"/>
<path d="M46.2589 13.3986C46.2589 12.398 47.7192 11.8744 48.9817 11.8744C48.9817 11.8744 51.5299 11.8045 52.9785 14.027L56.4751 11.5427C54.9391 8.98288 52.1757 7.60986 48.9817 7.60986C44.9208 7.60986 41.4882 9.72757 41.4882 13.5092C41.4882 20.0426 52.0884 18.5591 52.0884 21.2644C52.0884 22.3407 50.5583 22.8585 48.9409 22.8585H48.8827C48.458 22.8527 45.7062 22.7072 44.3972 20.1299L40.6621 22.7887C42.0817 25.6452 45.0022 27.2044 48.9467 27.2044C53.1647 27.2044 56.8765 25.2729 56.8765 21.2644C56.8765 14.4342 46.2705 16.1447 46.2705 13.3986H46.2589Z" fill="black"/>
<path d="M79.1161 17.4071C79.1161 11.9965 74.7294 7.60986 69.3188 7.60986C63.9082 7.60986 59.5215 11.9965 59.5215 17.4071C59.5215 22.8178 63.9082 27.2044 69.3188 27.2044C73.3389 27.2044 76.2944 25.4532 78.063 22.9108L74.4501 20.9502C73.4785 22.0789 72.0124 22.9923 69.8366 22.9923C67.3116 22.9923 65.2172 21.916 64.455 19.3736H78.9182C79.0462 18.7394 79.1161 18.082 79.1161 17.4071ZM64.455 15.6618C65.0252 13.2881 66.8171 11.9151 69.4409 11.9151C71.4946 11.9151 73.5484 12.9914 74.1592 15.6618H64.455Z" fill="black"/>
</svg>
